<mxfile host="Electron" modified="2023-04-21T04:38:31.053Z" agent="Mozilla/5.0 (Windows NT 10.0; Win64; x64) AppleWebKit/537.36 (KHTML, like Gecko) draw.io/21.2.1 Chrome/112.0.5615.87 Electron/24.1.2 Safari/537.36" etag="d_aj634JaokPvIAp3SoU" compressed="false" version="21.2.1" type="device">
  <diagram id="1IEk_Nb3fTFsxIXIZDjR" name="Page-1">
    <mxGraphModel dx="2323" dy="1674" grid="1" gridSize="10" guides="1" tooltips="1" connect="1" arrows="1" fold="1" page="0" pageScale="1" pageWidth="850" pageHeight="1100" math="1" shadow="0">
      <root>
        <mxCell id="0" />
        <mxCell id="1" parent="0" />
        <mxCell id="v4MbWclvh_0Z0_SbZdEy-33" value="PhysicalTwin" style="shape=folder;fontStyle=1;spacingTop=10;tabWidth=40;tabHeight=14;tabPosition=left;html=1;verticalAlign=top;fillColor=none;strokeColor=#E4AB44;strokeWidth=5;align=left;" parent="1" vertex="1">
          <mxGeometry x="-740" y="-380" width="410" height="350" as="geometry" />
        </mxCell>
        <mxCell id="EjS5dnvfsfONbI1b5QUk-45" value="Digital Twin" style="shape=folder;fontStyle=1;spacingTop=10;tabWidth=40;tabHeight=14;tabPosition=left;html=1;verticalAlign=top;fillColor=none;align=left;" parent="1" vertex="1">
          <mxGeometry x="-320" y="-380" width="880" height="350" as="geometry" />
        </mxCell>
        <mxCell id="v4MbWclvh_0Z0_SbZdEy-42" value="&lt;font style=&quot;font-size: 10px&quot;&gt;&lt;b&gt;heater_on&lt;/b&gt;&lt;/font&gt;" style="edgeStyle=orthogonalEdgeStyle;rounded=0;orthogonalLoop=1;jettySize=auto;html=1;exitX=0;exitY=0.25;exitDx=0;exitDy=0;fontSize=8;entryX=1.005;entryY=0.323;entryDx=0;entryDy=0;entryPerimeter=0;" parent="1" source="v4MbWclvh_0Z0_SbZdEy-38" target="v4MbWclvh_0Z0_SbZdEy-40" edge="1">
          <mxGeometry relative="1" as="geometry" />
        </mxCell>
        <mxCell id="v4MbWclvh_0Z0_SbZdEy-48" value="&lt;font size=&quot;1&quot;&gt;&lt;b&gt;{time, T}&amp;nbsp; [MQ]&lt;/b&gt;&lt;/font&gt;" style="edgeStyle=orthogonalEdgeStyle;shape=connector;rounded=0;orthogonalLoop=1;jettySize=auto;html=1;exitX=1;exitY=0.5;exitDx=0;exitDy=0;entryX=0;entryY=0.5;entryDx=0;entryDy=0;labelBackgroundColor=default;fontFamily=Helvetica;fontSize=8;fontColor=default;endArrow=classic;strokeColor=default;" parent="1" source="v4MbWclvh_0Z0_SbZdEy-38" target="v4MbWclvh_0Z0_SbZdEy-46" edge="1">
          <mxGeometry relative="1" as="geometry" />
        </mxCell>
        <mxCell id="v4MbWclvh_0Z0_SbZdEy-38" value="&lt;p style=&quot;margin: 6px 0px 0px ; text-align: center&quot;&gt;&lt;font&gt;&lt;b&gt;&lt;font style=&quot;font-size: 9px&quot;&gt;Controller&lt;/font&gt;&lt;/b&gt;&lt;br&gt;&lt;/font&gt;&lt;/p&gt;&lt;hr style=&quot;font-size: 13px&quot;&gt;&lt;p style=&quot;margin: 0px 0px 0px 8px ; font-size: 13px&quot;&gt;&lt;br&gt;&lt;/p&gt;" style="align=left;overflow=fill;html=1;dropTarget=0;fontSize=8;" parent="1" vertex="1">
          <mxGeometry x="-490" y="-250" width="140" height="70" as="geometry" />
        </mxCell>
        <mxCell id="v4MbWclvh_0Z0_SbZdEy-39" value="" style="shape=component;jettyWidth=8;jettyHeight=4;fontSize=8;" parent="v4MbWclvh_0Z0_SbZdEy-38" vertex="1">
          <mxGeometry x="1" width="20" height="20" relative="1" as="geometry">
            <mxPoint x="-24" y="4" as="offset" />
          </mxGeometry>
        </mxCell>
        <mxCell id="v4MbWclvh_0Z0_SbZdEy-44" value="&lt;font style=&quot;font-size: 11px&quot;&gt;&lt;b&gt;T&lt;/b&gt;&lt;/font&gt;" style="edgeStyle=orthogonalEdgeStyle;shape=connector;rounded=0;orthogonalLoop=1;jettySize=auto;html=1;exitX=1;exitY=0.75;exitDx=0;exitDy=0;entryX=0;entryY=0.75;entryDx=0;entryDy=0;labelBackgroundColor=default;fontFamily=Helvetica;fontSize=8;fontColor=default;endArrow=classic;strokeColor=default;" parent="1" source="v4MbWclvh_0Z0_SbZdEy-40" target="v4MbWclvh_0Z0_SbZdEy-38" edge="1">
          <mxGeometry relative="1" as="geometry" />
        </mxCell>
        <mxCell id="v4MbWclvh_0Z0_SbZdEy-40" value="&lt;p style=&quot;margin: 6px 0px 0px ; text-align: center ; font-size: 12px&quot;&gt;&lt;font style=&quot;font-size: 12px&quot;&gt;&lt;b&gt;Plant&lt;br&gt;&lt;/b&gt;&lt;/font&gt;&lt;/p&gt;&lt;hr style=&quot;font-size: 12px&quot;&gt;&lt;p style=&quot;margin: 0px 0px 0px 8px ; font-size: 12px&quot;&gt;&lt;font style=&quot;font-size: 12px&quot;&gt;&lt;b&gt;+ T: Int&lt;span style=&quot;white-space: pre&quot;&gt; &lt;/span&gt;# Air temperature&lt;br&gt;+ heater_on: Bool&amp;nbsp; &amp;nbsp; &amp;nbsp;&lt;/b&gt;&lt;/font&gt;&lt;/p&gt;&lt;p style=&quot;margin: 0px 0px 0px 8px ; font-size: 12px&quot;&gt;&lt;font style=&quot;font-size: 12px&quot;&gt;&lt;b&gt;# Status of heater&lt;/b&gt;&lt;/font&gt;&lt;/p&gt;" style="align=left;overflow=fill;html=1;dropTarget=0;fontSize=8;" parent="1" vertex="1">
          <mxGeometry x="-732.5" y="-257.5" width="165" height="80" as="geometry" />
        </mxCell>
        <mxCell id="v4MbWclvh_0Z0_SbZdEy-41" value="" style="shape=component;jettyWidth=8;jettyHeight=4;fontSize=8;" parent="v4MbWclvh_0Z0_SbZdEy-40" vertex="1">
          <mxGeometry x="1" width="20" height="20" relative="1" as="geometry">
            <mxPoint x="-24" y="4" as="offset" />
          </mxGeometry>
        </mxCell>
        <mxCell id="v4MbWclvh_0Z0_SbZdEy-55" value="&lt;font style=&quot;font-size: 10px&quot;&gt;&lt;b&gt;{time, T, T_heater}&amp;nbsp; [MQ]&lt;/b&gt;&lt;/font&gt;" style="edgeStyle=orthogonalEdgeStyle;shape=connector;rounded=0;orthogonalLoop=1;jettySize=auto;html=1;labelBackgroundColor=default;fontFamily=Helvetica;fontSize=8;fontColor=default;endArrow=classic;strokeColor=default;entryX=0.25;entryY=0;entryDx=0;entryDy=0;exitX=0.25;exitY=1;exitDx=0;exitDy=0;" parent="1" source="v4MbWclvh_0Z0_SbZdEy-46" target="v4MbWclvh_0Z0_SbZdEy-52" edge="1">
          <mxGeometry x="0.0769" y="-15" relative="1" as="geometry">
            <mxPoint as="offset" />
          </mxGeometry>
        </mxCell>
        <mxCell id="v4MbWclvh_0Z0_SbZdEy-46" value="&lt;p style=&quot;margin: 6px 0px 0px ; text-align: center ; font-size: 10px&quot;&gt;&lt;font style=&quot;font-size: 10px&quot;&gt;&lt;b&gt;KalmanFilter&lt;br&gt;&lt;/b&gt;&lt;/font&gt;&lt;/p&gt;&lt;hr style=&quot;font-size: 10px&quot;&gt;&lt;p style=&quot;margin: 0px 0px 0px 8px ; font-size: 10px&quot;&gt;&lt;font style=&quot;font-size: 10px&quot;&gt;&lt;b&gt;Estimates full Plant state&amp;nbsp;&lt;/b&gt;&lt;/font&gt;&lt;/p&gt;&lt;p style=&quot;margin: 0px 0px 0px 8px ; font-size: 10px&quot;&gt;&lt;font style=&quot;font-size: 10px&quot;&gt;&lt;b&gt;(T and T_heater)&lt;/b&gt;&lt;/font&gt;&lt;/p&gt;" style="align=left;overflow=fill;html=1;dropTarget=0;fontSize=8;fillColor=#E9E6FF;" parent="1" vertex="1">
          <mxGeometry x="-210" y="-210" width="140" height="55" as="geometry" />
        </mxCell>
        <mxCell id="v4MbWclvh_0Z0_SbZdEy-47" value="" style="shape=component;jettyWidth=8;jettyHeight=4;fontSize=8;fillColor=#E9E6FF;" parent="v4MbWclvh_0Z0_SbZdEy-46" vertex="1">
          <mxGeometry x="1" width="20" height="20" relative="1" as="geometry">
            <mxPoint x="-24" y="4" as="offset" />
          </mxGeometry>
        </mxCell>
        <mxCell id="EjS5dnvfsfONbI1b5QUk-41" value="&lt;font style=&quot;font-size: 10px&quot;&gt;&lt;b&gt;trigger when &lt;br&gt;anomaly detected&lt;/b&gt;&lt;/font&gt;" style="edgeStyle=orthogonalEdgeStyle;rounded=0;orthogonalLoop=1;jettySize=auto;html=1;fontSize=8;exitX=1;exitY=0.75;exitDx=0;exitDy=0;" parent="1" source="v4MbWclvh_0Z0_SbZdEy-52" target="EjS5dnvfsfONbI1b5QUk-27" edge="1">
          <mxGeometry x="-0.0166" y="-13" relative="1" as="geometry">
            <mxPoint as="offset" />
          </mxGeometry>
        </mxCell>
        <mxCell id="v4MbWclvh_0Z0_SbZdEy-52" value="&lt;p style=&quot;text-align: center ; margin: 6px 0px 0px ; font-size: 10px&quot;&gt;&lt;font style=&quot;font-size: 10px&quot;&gt;&lt;b&gt;SelfAdaptationManager&lt;br&gt;&lt;/b&gt;&lt;/font&gt;&lt;/p&gt;&lt;hr style=&quot;font-size: 10px&quot;&gt;&lt;p style=&quot;margin: 0px 0px 0px 8px ; font-size: 10px&quot;&gt;&lt;font style=&quot;font-size: 10px&quot;&gt;&lt;b&gt;Coordinates the self adaptation loop&lt;/b&gt;&lt;/font&gt;&lt;/p&gt;" style="align=left;overflow=fill;html=1;dropTarget=0;fontSize=8;fillColor=#84DD63;" parent="1" vertex="1">
          <mxGeometry x="-220" y="-110" width="190" height="55" as="geometry" />
        </mxCell>
        <mxCell id="v4MbWclvh_0Z0_SbZdEy-53" value="" style="shape=component;jettyWidth=8;jettyHeight=4;fontSize=8;fillColor=#84DD63;" parent="v4MbWclvh_0Z0_SbZdEy-52" vertex="1">
          <mxGeometry x="1" width="20" height="20" relative="1" as="geometry">
            <mxPoint x="-24" y="4" as="offset" />
          </mxGeometry>
        </mxCell>
        <mxCell id="v4MbWclvh_0Z0_SbZdEy-54" value="&lt;font style=&quot;font-size: 10px&quot;&gt;&lt;b&gt;{time, T}&amp;nbsp; [MQ]&lt;/b&gt;&lt;/font&gt;" style="edgeStyle=orthogonalEdgeStyle;shape=connector;rounded=0;orthogonalLoop=1;jettySize=auto;html=1;exitX=1;exitY=0.5;exitDx=0;exitDy=0;labelBackgroundColor=default;fontFamily=Helvetica;fontSize=8;fontColor=default;endArrow=classic;strokeColor=default;entryX=0;entryY=0.5;entryDx=0;entryDy=0;" parent="1" source="v4MbWclvh_0Z0_SbZdEy-38" target="v4MbWclvh_0Z0_SbZdEy-52" edge="1">
          <mxGeometry x="0.3524" relative="1" as="geometry">
            <mxPoint as="offset" />
          </mxGeometry>
        </mxCell>
        <mxCell id="EjS5dnvfsfONbI1b5QUk-1" value="&lt;p style=&quot;margin: 6px 0px 0px ; text-align: center ; font-size: 10px&quot;&gt;&lt;font style=&quot;font-size: 10px&quot;&gt;&lt;b&gt;InfluxDataRecorder&lt;br&gt;&lt;/b&gt;&lt;/font&gt;&lt;/p&gt;&lt;hr style=&quot;font-size: 10px&quot;&gt;&lt;p style=&quot;text-align: justify ; margin: 0px 0px 0px 8px ; font-size: 10px&quot;&gt;&lt;font style=&quot;font-size: 10px&quot;&gt;&lt;b&gt;Convenience service to record&amp;nbsp;&lt;/b&gt;&lt;/font&gt;&lt;/p&gt;&lt;p style=&quot;text-align: justify ; margin: 0px 0px 0px 8px ; font-size: 10px&quot;&gt;&lt;font style=&quot;font-size: 10px&quot;&gt;&lt;b&gt;all state messages into DB&lt;/b&gt;&lt;/font&gt;&lt;/p&gt;" style="align=left;overflow=fill;html=1;dropTarget=0;fontSize=8;" parent="1" vertex="1">
          <mxGeometry x="-220" y="-305" width="160" height="55" as="geometry" />
        </mxCell>
        <mxCell id="EjS5dnvfsfONbI1b5QUk-2" value="" style="shape=component;jettyWidth=8;jettyHeight=4;fontSize=8;" parent="EjS5dnvfsfONbI1b5QUk-1" vertex="1">
          <mxGeometry x="1" width="20" height="20" relative="1" as="geometry">
            <mxPoint x="-24" y="4" as="offset" />
          </mxGeometry>
        </mxCell>
        <mxCell id="EjS5dnvfsfONbI1b5QUk-3" value="&lt;font style=&quot;font-size: 10px&quot;&gt;&lt;b&gt;{time, T}&amp;nbsp; [MQ]&lt;/b&gt;&lt;/font&gt;" style="edgeStyle=orthogonalEdgeStyle;shape=connector;rounded=0;orthogonalLoop=1;jettySize=auto;html=1;exitX=1;exitY=0.5;exitDx=0;exitDy=0;entryX=0;entryY=0.5;entryDx=0;entryDy=0;labelBackgroundColor=default;fontFamily=Helvetica;fontSize=8;fontColor=default;endArrow=classic;strokeColor=default;" parent="1" source="v4MbWclvh_0Z0_SbZdEy-38" target="EjS5dnvfsfONbI1b5QUk-1" edge="1">
          <mxGeometry x="-0.1383" y="3" relative="1" as="geometry">
            <mxPoint x="-340" y="-210" as="sourcePoint" />
            <mxPoint x="-190" y="-132.5" as="targetPoint" />
            <mxPoint y="1" as="offset" />
          </mxGeometry>
        </mxCell>
        <mxCell id="EjS5dnvfsfONbI1b5QUk-4" value="&lt;font style=&quot;font-size: 10px&quot;&gt;&lt;b&gt;{time, T, T_heater}&amp;nbsp; [MQ]&lt;/b&gt;&lt;/font&gt;" style="edgeStyle=orthogonalEdgeStyle;shape=connector;rounded=0;orthogonalLoop=1;jettySize=auto;html=1;labelBackgroundColor=default;fontFamily=Helvetica;fontSize=8;fontColor=default;endArrow=classic;strokeColor=default;exitX=1;exitY=0.5;exitDx=0;exitDy=0;entryX=1;entryY=0.5;entryDx=0;entryDy=0;" parent="1" source="v4MbWclvh_0Z0_SbZdEy-46" target="EjS5dnvfsfONbI1b5QUk-1" edge="1">
          <mxGeometry x="-0.0495" y="-20" relative="1" as="geometry">
            <mxPoint x="-140" y="-105" as="sourcePoint" />
            <mxPoint x="-140" y="-40" as="targetPoint" />
            <mxPoint as="offset" />
          </mxGeometry>
        </mxCell>
        <mxCell id="EjS5dnvfsfONbI1b5QUk-22" value="&lt;b&gt;get system snapshot and parameters [API]&lt;/b&gt;" style="rounded=0;orthogonalLoop=1;jettySize=auto;html=1;fontSize=8;exitX=0.75;exitY=1;exitDx=0;exitDy=0;entryX=0.75;entryY=0;entryDx=0;entryDy=0;" parent="1" source="EjS5dnvfsfONbI1b5QUk-13" target="EjS5dnvfsfONbI1b5QUk-18" edge="1">
          <mxGeometry x="-0.0277" y="11" relative="1" as="geometry">
            <mxPoint as="offset" />
          </mxGeometry>
        </mxCell>
        <mxCell id="EjS5dnvfsfONbI1b5QUk-23" value="&lt;font style=&quot;font-size: 10px&quot;&gt;&lt;b&gt;sets new parameters [MQ]&lt;/b&gt;&lt;/font&gt;" style="edgeStyle=orthogonalEdgeStyle;rounded=0;orthogonalLoop=1;jettySize=auto;html=1;fontSize=8;exitX=0.5;exitY=0;exitDx=0;exitDy=0;strokeColor=#CB793A;strokeWidth=5;" parent="1" source="EjS5dnvfsfONbI1b5QUk-13" target="v4MbWclvh_0Z0_SbZdEy-38" edge="1">
          <mxGeometry x="0.0106" y="-10" relative="1" as="geometry">
            <Array as="points">
              <mxPoint x="180" y="-340" />
              <mxPoint x="-420" y="-340" />
            </Array>
            <mxPoint as="offset" />
          </mxGeometry>
        </mxCell>
        <mxCell id="EjS5dnvfsfONbI1b5QUk-13" value="&lt;p style=&quot;margin: 6px 0px 0px ; text-align: center ; font-size: 9px&quot;&gt;&lt;font style=&quot;font-size: 9px&quot;&gt;&lt;b&gt;&amp;lt;&amp;lt;OptimizationLoop&amp;gt;&amp;gt;&lt;br&gt;ControllerOptimizer&lt;/b&gt;&lt;/font&gt;&lt;/p&gt;&lt;hr style=&quot;font-size: 9px&quot;&gt;&lt;p style=&quot;margin: 0px 0px 0px 8px ; font-size: 9px&quot;&gt;&lt;font style=&quot;font-size: 9px&quot;&gt;&lt;b&gt;Finetunes controller parameters&lt;/b&gt;&lt;/font&gt;&lt;/p&gt;&lt;p style=&quot;margin: 0px 0px 0px 8px ; font-size: 9px&quot;&gt;&lt;font style=&quot;font-size: 9px&quot;&gt;&lt;b&gt;based on simulaton results.&lt;/b&gt;&lt;/font&gt;&lt;/p&gt;" style="align=left;overflow=fill;html=1;dropTarget=0;fontSize=8;fillColor=#9A031E;fontColor=#FFFFFF;" parent="1" vertex="1">
          <mxGeometry x="100" y="-322.5" width="160" height="60" as="geometry" />
        </mxCell>
        <mxCell id="EjS5dnvfsfONbI1b5QUk-18" value="&lt;font style=&quot;font-size: 10px&quot;&gt;&lt;b&gt;«TimeSeriesDB»&lt;br&gt;InfluxDB&lt;/b&gt;&lt;/font&gt;" style="html=1;dropTarget=0;" parent="1" vertex="1">
          <mxGeometry x="90" y="-220" width="170" height="40" as="geometry" />
        </mxCell>
        <mxCell id="EjS5dnvfsfONbI1b5QUk-19" value="" style="shape=module;jettyWidth=8;jettyHeight=4;" parent="EjS5dnvfsfONbI1b5QUk-18" vertex="1">
          <mxGeometry x="1" width="20" height="20" relative="1" as="geometry">
            <mxPoint x="-27" y="7" as="offset" />
          </mxGeometry>
        </mxCell>
        <mxCell id="EjS5dnvfsfONbI1b5QUk-24" value="&lt;b&gt;store new controller parameters [API]&lt;/b&gt;" style="rounded=0;orthogonalLoop=1;jettySize=auto;html=1;fontSize=8;exitX=0.25;exitY=1;exitDx=0;exitDy=0;entryX=0.25;entryY=0;entryDx=0;entryDy=0;" parent="1" source="EjS5dnvfsfONbI1b5QUk-13" target="EjS5dnvfsfONbI1b5QUk-18" edge="1">
          <mxGeometry x="-0.5174" y="5" relative="1" as="geometry">
            <mxPoint x="190" y="-310" as="sourcePoint" />
            <mxPoint x="331" y="-360" as="targetPoint" />
            <mxPoint as="offset" />
          </mxGeometry>
        </mxCell>
        <mxCell id="EjS5dnvfsfONbI1b5QUk-25" value="&lt;p style=&quot;margin: 0px ; margin-top: 6px ; text-align: center&quot;&gt;&lt;b&gt;PhysicalTwinSimulator&lt;br&gt;&lt;/b&gt;&lt;/p&gt;&lt;hr&gt;&lt;p style=&quot;margin: 0px 0px 0px 8px; font-size: 9px;&quot;&gt;&lt;font style=&quot;font-size: 9px;&quot;&gt;&lt;b&gt;Runs what-if simulations of physical&amp;nbsp;&lt;/b&gt;&lt;/font&gt;&lt;/p&gt;&lt;p style=&quot;margin: 0px 0px 0px 8px; font-size: 9px;&quot;&gt;&lt;font style=&quot;font-size: 9px;&quot;&gt;&lt;b&gt;twin,&amp;nbsp;&amp;nbsp;&lt;span style=&quot;background-color: initial;&quot;&gt;given parameters of controller&amp;nbsp;&lt;/span&gt;&lt;/b&gt;&lt;/font&gt;&lt;/p&gt;&lt;p style=&quot;margin: 0px 0px 0px 8px; font-size: 9px;&quot;&gt;&lt;font style=&quot;font-size: 9px;&quot;&gt;&lt;b&gt;and future environment signals.&lt;/b&gt;&lt;/font&gt;&lt;/p&gt;" style="align=left;overflow=fill;html=1;dropTarget=0;fontSize=8;fillColor=#FCDC4D;" parent="1" vertex="1">
          <mxGeometry x="370" y="-327.5" width="170" height="65" as="geometry" />
        </mxCell>
        <mxCell id="EjS5dnvfsfONbI1b5QUk-26" value="&lt;font style=&quot;font-size: 10px&quot;&gt;&lt;b&gt;run simulation with &lt;br&gt;guessed parameters&lt;/b&gt;&lt;/font&gt;" style="rounded=0;orthogonalLoop=1;jettySize=auto;html=1;fontSize=8;exitX=1;exitY=0.5;exitDx=0;exitDy=0;" parent="1" source="EjS5dnvfsfONbI1b5QUk-13" target="EjS5dnvfsfONbI1b5QUk-25" edge="1">
          <mxGeometry x="0.0027" y="17" relative="1" as="geometry">
            <mxPoint x="-130" y="-282.5" as="sourcePoint" />
            <mxPoint x="110" y="-282.5" as="targetPoint" />
            <mxPoint as="offset" />
          </mxGeometry>
        </mxCell>
        <mxCell id="EjS5dnvfsfONbI1b5QUk-36" value="&lt;font style=&quot;font-size: 10px&quot;&gt;&lt;b&gt;run simulation with &lt;br&gt;guessed parameters&lt;/b&gt;&lt;/font&gt;" style="edgeStyle=orthogonalEdgeStyle;rounded=0;orthogonalLoop=1;jettySize=auto;html=1;fontSize=8;entryX=0;entryY=0.5;entryDx=0;entryDy=0;exitX=1;exitY=0.5;exitDx=0;exitDy=0;" parent="1" source="EjS5dnvfsfONbI1b5QUk-27" target="EjS5dnvfsfONbI1b5QUk-34" edge="1">
          <mxGeometry x="-0.0687" y="-14" relative="1" as="geometry">
            <mxPoint as="offset" />
          </mxGeometry>
        </mxCell>
        <mxCell id="EjS5dnvfsfONbI1b5QUk-37" value="&lt;font style=&quot;font-size: 10px&quot;&gt;&lt;b&gt;get plant signals between dates [API]&lt;/b&gt;&lt;/font&gt;" style="rounded=0;orthogonalLoop=1;jettySize=auto;html=1;fontSize=8;entryX=0.25;entryY=1;entryDx=0;entryDy=0;exitX=0.25;exitY=0;exitDx=0;exitDy=0;" parent="1" source="EjS5dnvfsfONbI1b5QUk-27" target="EjS5dnvfsfONbI1b5QUk-18" edge="1">
          <mxGeometry x="-0.433" y="31" relative="1" as="geometry">
            <mxPoint as="offset" />
          </mxGeometry>
        </mxCell>
        <mxCell id="EjS5dnvfsfONbI1b5QUk-27" value="&lt;p style=&quot;margin: 6px 0px 0px ; text-align: center ; font-size: 9px&quot;&gt;&lt;font style=&quot;font-size: 9px&quot;&gt;&lt;b&gt;&amp;lt;&amp;lt;OptimizationLoop&amp;gt;&amp;gt;&lt;br&gt;Calibrator&lt;/b&gt;&lt;/font&gt;&lt;/p&gt;&lt;hr style=&quot;font-size: 9px&quot;&gt;&lt;p style=&quot;margin: 0px 0px 0px 8px ; font-size: 9px&quot;&gt;&lt;font style=&quot;font-size: 9px&quot;&gt;&lt;b&gt;Estimates parameters of plant model&lt;/b&gt;&lt;/font&gt;&lt;/p&gt;" style="align=left;overflow=fill;html=1;dropTarget=0;fontSize=8;fillColor=#5F0F40;fontColor=#FFFFFF;" parent="1" vertex="1">
          <mxGeometry x="90" y="-95" width="170" height="52.5" as="geometry" />
        </mxCell>
        <mxCell id="EjS5dnvfsfONbI1b5QUk-28" value="&lt;p style=&quot;margin: 6px 0px 0px ; text-align: center ; font-size: 9px&quot;&gt;&lt;font style=&quot;font-size: 9px&quot;&gt;&lt;b&gt;PlantModel&lt;/b&gt;&lt;br&gt;&lt;/font&gt;&lt;/p&gt;&lt;hr style=&quot;font-size: 9px&quot;&gt;&lt;p style=&quot;margin: 0px 0px 0px 8px ; font-size: 10px&quot;&gt;&lt;font style=&quot;font-size: 10px&quot;&gt;&lt;b&gt;C_air: Real&lt;/b&gt;&lt;/font&gt;&lt;/p&gt;&lt;p style=&quot;margin: 0px 0px 0px 8px ; font-size: 10px&quot;&gt;&lt;font style=&quot;font-size: 10px&quot;&gt;&lt;b&gt;G_box: Real&lt;/b&gt;&lt;/font&gt;&lt;/p&gt;" style="align=left;overflow=fill;html=1;dropTarget=0;fontSize=8;fillColor=#FCDC4D;" parent="1" vertex="1">
          <mxGeometry x="330" y="-205" width="80" height="55" as="geometry" />
        </mxCell>
        <mxCell id="EjS5dnvfsfONbI1b5QUk-29" value="&lt;p style=&quot;margin: 6px 0px 0px ; text-align: center ; font-size: 9px&quot;&gt;&lt;font style=&quot;font-size: 9px&quot;&gt;&lt;b&gt;ControllerModel&lt;br&gt;&lt;/b&gt;&lt;/font&gt;&lt;/p&gt;&lt;hr style=&quot;font-size: 9px&quot;&gt;&lt;p style=&quot;margin: 0px 0px 0px 8px ; font-size: 10px&quot;&gt;&lt;b&gt;ctrl_parameters&lt;/b&gt;&lt;/p&gt;" style="align=left;overflow=fill;html=1;dropTarget=0;fontSize=8;fillColor=#FCDC4D;" parent="1" vertex="1">
          <mxGeometry x="420" y="-207.5" width="130" height="60" as="geometry" />
        </mxCell>
        <mxCell id="EjS5dnvfsfONbI1b5QUk-30" value="&lt;font style=&quot;font-size: 10px&quot;&gt;&lt;b&gt;instantiates &lt;br&gt;and runs&lt;/b&gt;&lt;/font&gt;" style="edgeStyle=orthogonalEdgeStyle;rounded=0;orthogonalLoop=1;jettySize=auto;html=1;fontSize=8;" parent="1" source="EjS5dnvfsfONbI1b5QUk-25" target="EjS5dnvfsfONbI1b5QUk-28" edge="1">
          <mxGeometry relative="1" as="geometry">
            <mxPoint x="270" y="-307.5" as="sourcePoint" />
            <mxPoint x="410" y="-227.5" as="targetPoint" />
          </mxGeometry>
        </mxCell>
        <mxCell id="EjS5dnvfsfONbI1b5QUk-31" value="&lt;font style=&quot;font-size: 10px&quot;&gt;&lt;b&gt;instantiates and runs&lt;/b&gt;&lt;/font&gt;" style="edgeStyle=orthogonalEdgeStyle;rounded=0;orthogonalLoop=1;jettySize=auto;html=1;fontSize=8;" parent="1" source="EjS5dnvfsfONbI1b5QUk-25" target="EjS5dnvfsfONbI1b5QUk-29" edge="1">
          <mxGeometry x="-0.7297" y="10" relative="1" as="geometry">
            <mxPoint x="270" y="-307.5" as="sourcePoint" />
            <mxPoint x="410" y="-227.5" as="targetPoint" />
            <mxPoint as="offset" />
          </mxGeometry>
        </mxCell>
        <mxCell id="EjS5dnvfsfONbI1b5QUk-35" value="&lt;font style=&quot;font-size: 10px&quot;&gt;&lt;b&gt;instantiates and runs&lt;/b&gt;&lt;/font&gt;" style="edgeStyle=orthogonalEdgeStyle;rounded=0;orthogonalLoop=1;jettySize=auto;html=1;fontSize=8;" parent="1" source="EjS5dnvfsfONbI1b5QUk-34" target="EjS5dnvfsfONbI1b5QUk-28" edge="1">
          <mxGeometry relative="1" as="geometry" />
        </mxCell>
        <mxCell id="EjS5dnvfsfONbI1b5QUk-34" value="&lt;p style=&quot;margin: 6px 0px 0px ; text-align: center ; font-size: 9px&quot;&gt;&lt;font style=&quot;font-size: 9px&quot;&gt;&lt;b&gt;PlantSimulator&lt;br&gt;&lt;/b&gt;&lt;/font&gt;&lt;/p&gt;&lt;hr style=&quot;font-size: 9px&quot;&gt;&lt;p style=&quot;margin: 0px 0px 0px 8px ; font-size: 9px&quot;&gt;&lt;font style=&quot;font-size: 9px&quot;&gt;&lt;b&gt;Runs what-if simulations of plant,&amp;nbsp;&lt;/b&gt;&lt;/font&gt;&lt;/p&gt;&lt;p style=&quot;margin: 0px 0px 0px 8px ; font-size: 9px&quot;&gt;&lt;font style=&quot;font-size: 9px&quot;&gt;&lt;b&gt;given control and environment signals&lt;/b&gt;&lt;/font&gt;&lt;br&gt;&lt;/p&gt;" style="align=left;overflow=fill;html=1;dropTarget=0;fontSize=8;fillColor=#FCDC4D;" parent="1" vertex="1">
          <mxGeometry x="370" y="-95" width="180" height="52.5" as="geometry" />
        </mxCell>
        <mxCell id="EjS5dnvfsfONbI1b5QUk-39" value="&lt;font style=&quot;font-size: 10px&quot;&gt;&lt;b&gt;store new plant parameters [API]&lt;/b&gt;&lt;/font&gt;" style="rounded=0;orthogonalLoop=1;jettySize=auto;html=1;fontSize=8;exitX=0.75;exitY=0;exitDx=0;exitDy=0;entryX=0.75;entryY=1;entryDx=0;entryDy=0;" parent="1" source="EjS5dnvfsfONbI1b5QUk-27" target="EjS5dnvfsfONbI1b5QUk-18" edge="1">
          <mxGeometry x="-0.5882" y="-52" relative="1" as="geometry">
            <mxPoint x="50" y="-47.5" as="sourcePoint" />
            <mxPoint x="371.875" y="-397.5" as="targetPoint" />
            <mxPoint as="offset" />
          </mxGeometry>
        </mxCell>
        <mxCell id="EjS5dnvfsfONbI1b5QUk-43" value="&lt;font style=&quot;font-size: 10px&quot;&gt;&lt;b&gt;update plant parameters [MQ]&lt;/b&gt;&lt;/font&gt;" style="edgeStyle=orthogonalEdgeStyle;rounded=0;orthogonalLoop=1;jettySize=auto;html=1;fontSize=8;exitX=0.75;exitY=0;exitDx=0;exitDy=0;entryX=0.75;entryY=1;entryDx=0;entryDy=0;" parent="1" source="v4MbWclvh_0Z0_SbZdEy-52" target="v4MbWclvh_0Z0_SbZdEy-46" edge="1">
          <mxGeometry x="-0.7396" y="-10" relative="1" as="geometry">
            <mxPoint x="-70" y="-12.5" as="sourcePoint" />
            <mxPoint x="40" y="-12.5" as="targetPoint" />
            <mxPoint as="offset" />
            <Array as="points">
              <mxPoint x="-115" y="-110" />
            </Array>
          </mxGeometry>
        </mxCell>
        <mxCell id="EjS5dnvfsfONbI1b5QUk-44" value="&lt;font style=&quot;font-size: 10px&quot;&gt;&lt;b&gt;triggers after new parameters&lt;/b&gt;&lt;/font&gt;" style="edgeStyle=orthogonalEdgeStyle;rounded=0;orthogonalLoop=1;jettySize=auto;html=1;fontSize=8;entryX=0;entryY=0.75;entryDx=0;entryDy=0;exitX=1;exitY=0.25;exitDx=0;exitDy=0;" parent="1" source="v4MbWclvh_0Z0_SbZdEy-52" target="EjS5dnvfsfONbI1b5QUk-13" edge="1">
          <mxGeometry x="-0.2083" relative="1" as="geometry">
            <mxPoint x="-50" y="-282.46153846153834" as="sourcePoint" />
            <mxPoint x="190" y="-280" as="targetPoint" />
            <Array as="points">
              <mxPoint x="50" y="-96" />
              <mxPoint x="50" y="-277" />
              <mxPoint x="100" y="-277" />
            </Array>
            <mxPoint as="offset" />
          </mxGeometry>
        </mxCell>
        <mxCell id="eyBVZ_MkJJh66saB7Oj8-1" value="" style="rounded=1;whiteSpace=wrap;html=1;fontSize=8;fillColor=#f5f5f5;fontColor=#333333;strokeColor=#666666;" parent="1" vertex="1">
          <mxGeometry x="-690" y="-150" width="330" height="80" as="geometry" />
        </mxCell>
        <mxCell id="eyBVZ_MkJJh66saB7Oj8-2" value="Legend:" style="text;html=1;strokeColor=none;fillColor=none;align=left;verticalAlign=middle;whiteSpace=wrap;rounded=0;fontStyle=1;spacing=6;" parent="1" vertex="1">
          <mxGeometry x="-690" y="-150" width="80" height="30" as="geometry" />
        </mxCell>
        <mxCell id="eyBVZ_MkJJh66saB7Oj8-3" value="&lt;p style=&quot;margin: 6px 0px 0px ; text-align: center&quot;&gt;&lt;font&gt;&lt;b&gt;&lt;font style=&quot;font-size: 10px&quot;&gt;Component&lt;/font&gt;&lt;/b&gt;&lt;br&gt;&lt;/font&gt;&lt;/p&gt;&lt;hr style=&quot;font-size: 9px&quot;&gt;&lt;p style=&quot;margin: 0px 0px 0px 8px ; font-size: 9px&quot;&gt;&lt;font style=&quot;font-size: 9px&quot;&gt;&lt;b&gt;Main variables, or responsibility.&lt;/b&gt;&lt;/font&gt;&lt;/p&gt;" style="align=left;overflow=fill;html=1;dropTarget=0;fontSize=8;" parent="1" vertex="1">
          <mxGeometry x="-667.5" y="-120" width="147.5" height="40" as="geometry" />
        </mxCell>
        <mxCell id="eyBVZ_MkJJh66saB7Oj8-4" value="" style="shape=component;jettyWidth=8;jettyHeight=4;fontSize=8;" parent="eyBVZ_MkJJh66saB7Oj8-3" vertex="1">
          <mxGeometry x="1" width="20" height="20" relative="1" as="geometry">
            <mxPoint x="-24" y="4" as="offset" />
          </mxGeometry>
        </mxCell>
        <mxCell id="eyBVZ_MkJJh66saB7Oj8-10" value="" style="edgeStyle=orthogonalEdgeStyle;shape=connector;rounded=0;orthogonalLoop=1;jettySize=auto;html=1;labelBackgroundColor=default;fontFamily=Helvetica;fontSize=8;fontColor=default;endArrow=classic;strokeColor=default;exitX=1;exitY=0.5;exitDx=0;exitDy=0;entryX=0;entryY=0.5;entryDx=0;entryDy=0;" parent="1" source="eyBVZ_MkJJh66saB7Oj8-11" target="eyBVZ_MkJJh66saB7Oj8-13" edge="1">
          <mxGeometry relative="1" as="geometry">
            <mxPoint x="-490" y="-100" as="sourcePoint" />
            <mxPoint x="-380" y="-130" as="targetPoint" />
          </mxGeometry>
        </mxCell>
        <mxCell id="eyBVZ_MkJJh66saB7Oj8-11" value="&lt;p style=&quot;margin: 6px 0px 0px&quot;&gt;&lt;b&gt;&amp;nbsp; A&lt;/b&gt;&lt;/p&gt;" style="align=left;overflow=fill;html=1;dropTarget=0;fontSize=8;spacing=3;" parent="1" vertex="1">
          <mxGeometry x="-500" y="-140" width="40" height="24" as="geometry" />
        </mxCell>
        <mxCell id="eyBVZ_MkJJh66saB7Oj8-12" value="" style="shape=component;jettyWidth=8;jettyHeight=4;fontSize=8;" parent="eyBVZ_MkJJh66saB7Oj8-11" vertex="1">
          <mxGeometry x="1" width="19" height="15" relative="1" as="geometry">
            <mxPoint x="-24" y="4" as="offset" />
          </mxGeometry>
        </mxCell>
        <mxCell id="eyBVZ_MkJJh66saB7Oj8-13" value="&lt;p style=&quot;margin: 6px 0px 0px&quot;&gt;&lt;b&gt;&amp;nbsp; B&lt;/b&gt;&lt;/p&gt;" style="align=left;overflow=fill;html=1;dropTarget=0;fontSize=8;spacing=3;" parent="1" vertex="1">
          <mxGeometry x="-440" y="-140" width="40" height="24" as="geometry" />
        </mxCell>
        <mxCell id="eyBVZ_MkJJh66saB7Oj8-14" value="" style="shape=component;jettyWidth=8;jettyHeight=4;fontSize=8;" parent="eyBVZ_MkJJh66saB7Oj8-13" vertex="1">
          <mxGeometry x="1" width="19" height="15" relative="1" as="geometry">
            <mxPoint x="-24" y="4" as="offset" />
          </mxGeometry>
        </mxCell>
        <mxCell id="eyBVZ_MkJJh66saB7Oj8-15" value="&lt;font style=&quot;font-size: 10px&quot;&gt;&lt;b&gt;A sends data to B, or A requests something from B &lt;br&gt;[communication technology]&lt;/b&gt;&lt;/font&gt;" style="text;html=1;strokeColor=none;fillColor=none;align=left;verticalAlign=middle;whiteSpace=wrap;rounded=0;fontStyle=0;fontSize=8;" parent="1" vertex="1">
          <mxGeometry x="-500" y="-116" width="150" height="40" as="geometry" />
        </mxCell>
        <mxCell id="EjS5dnvfsfONbI1b5QUk-38" value="&lt;font style=&quot;font-size: 10px&quot;&gt;&lt;b&gt;get plant parameters [API]&lt;/b&gt;&lt;/font&gt;" style="rounded=0;orthogonalLoop=1;jettySize=auto;html=1;fontSize=8;entryX=0.5;entryY=1;entryDx=0;entryDy=0;exitX=0.5;exitY=0;exitDx=0;exitDy=0;" parent="1" source="EjS5dnvfsfONbI1b5QUk-27" target="EjS5dnvfsfONbI1b5QUk-18" edge="1">
          <mxGeometry x="0.3529" y="-25" relative="1" as="geometry">
            <mxPoint x="40" y="-47.5" as="sourcePoint" />
            <mxPoint x="160" y="-177.5" as="targetPoint" />
            <mxPoint as="offset" />
          </mxGeometry>
        </mxCell>
        <mxCell id="O03osPzLl7gXZBjYMkIJ-1" value="&lt;h1&gt;&lt;span style=&quot;background-color: initial;&quot;&gt;Main Components and Dependencies&lt;/span&gt;&lt;/h1&gt;&lt;h1 style=&quot;border-color: var(--border-color);&quot;&gt;&lt;font style=&quot;font-weight: normal; font-size: 12px;&quot;&gt;This diagram shows the main components and their dependencies, for a typical self-adaptation loop.&lt;/font&gt;&lt;/h1&gt;" style="text;html=1;strokeColor=none;fillColor=none;spacing=5;spacingTop=-20;whiteSpace=wrap;overflow=hidden;rounded=0;" parent="1" vertex="1">
          <mxGeometry x="-740" y="-490" width="1300" height="90" as="geometry" />
        </mxCell>
      </root>
    </mxGraphModel>
  </diagram>
</mxfile>
